# xmcd CD database file
#
# Track frame offsets:
#	150
#	20525
#	43080
#
# Disc length: 869 seconds
#
# Revision: 0
# Processed by: cddbd v1.5PL3 Copyright (c) Steve Scherf et al.
# Submitted via: CDex 1.50beta8
#
DISCID=1e036303
DTITLE=the natural color - まぶしすぎる場所
DYEAR=1900
DGENRE=Pop
TTITLE0=まぶしすぎる場所
TTITLE1=rththm
TTITLE2=丘の上の二人
EXTD=
EXTT0=
EXTT1=
EXTT2=
PLAYORDER=
